<!-- Generated by IcoMoon.io -->
<svg version="1.1" xmlns="http://www.w3.org/2000/svg" width="1024" height="1024" viewBox="0 0 1024 1024">
<g id="icomoon-ignore">
</g>
<path fill="#ffffff" d="M882.901 235.087h-744.015c-27.75 0-51.142 24.25-51.142 54.157v445.517c0 29.907 23.392 54.152 52.251 54.152h203.238c21.791 0 40.468-13.817 48.317-33.465l59.097-147.936c9.965-24.945 33.68-42.494 61.353-42.494s51.388 17.549 61.353 42.494l59.097 147.936c7.849 19.648 26.526 33.465 47.208 33.465h203.243c29.963 0 53.355-24.245 53.355-54.152v-445.517c0-29.907-23.392-54.157-53.355-54.157v0zM319.556 609.462c-51.986 0-94.079-43.609-94.079-97.461s42.093-97.456 94.079-97.456c51.981 0 93.987 43.604 93.987 97.456s-42.098 97.461-93.987 97.461v0zM704.491 609.417c-51.957 0-94.035-43.589-94.035-97.416 0-53.823 42.078-97.411 94.035-97.411s94.035 43.589 94.035 97.411c0 53.828-42.078 97.416-94.035 97.416v0z"></path>
</svg>
