<!-- Generated by IcoMoon.io -->
<svg version="1.1" xmlns="http://www.w3.org/2000/svg" width="819" height="1024" viewBox="0 0 819 1024">
<g id="icomoon-ignore">
</g>
<path fill="#ffffff" d="M771.382 316.484c-7.202-13.824-30.481-33.519-45.534-37.137-0.444-0.102-0.853-0.205-1.297-0.307-71.509-96.529-185.685-159.573-315.051-159.573-129.775 0-244.224 63.454-315.699 160.495-16.145 5.837-38.81 22.528-45.739 35.669-31.471 59.938-48.162 126.976-48.162 196.403 0 67.243 15.701 132.301 45.329 190.874 6.861 13.585 30.515 33.758 47.582 41.062 71.441 97.382 186.675 160.563 316.689 160.563 129.741 0 244.804-62.942 316.245-159.949 16.589-5.632 41.199-28.092 48.572-42.769 29.286-58.266 44.783-122.948 44.783-189.781 0-69.086-16.521-135.817-47.718-195.55v0zM506.37 839.373c11.332-17.34 21.538-37.751 30.515-60.689 34.816-3.618 68.881-8.772 103.731-15.394-38.229 35.157-84.105 61.303-134.246 76.083v0zM409.5 853.333c-24.644 0-49.391-26.044-69.939-70.11 22.63 1.263 45.807 1.877 69.939 1.877 24.166 0 47.343-0.614 69.939-1.843-20.514 44.032-45.261 70.076-69.939 70.076v0zM178.417 763.255c34.748 6.622 68.881 11.776 103.697 15.428 8.977 22.938 19.217 43.349 30.515 60.689-50.142-14.78-95.983-40.892-134.212-76.117v0zM281.944 245.999c-34.645 3.618-68.881 8.26-103.492 14.814 38.263-35.191 84.070-61.372 134.178-76.151-11.401 17.476-21.675 38.161-30.686 61.338v0zM409.5 170.667c24.644 0 49.289 26.351 69.769 70.281-22.528-1.229-45.568-1.98-69.769-1.98-24.235 0-47.172 0.922-69.871 2.15 20.548-44.032 45.227-70.451 69.871-70.451v0zM640.651 260.847c-34.918-6.656-69.018-11.81-103.834-15.428-8.977-22.938-19.115-43.418-30.447-60.791 50.142 14.814 96.017 40.96 134.281 76.22v0zM729.022 635.016c-16.623 14.711-38.093 21.914-67.789 21.914-64.41 0-173.466-131.925-173.466-131.925-6.076-6.997-16.145-7.134-22.426-0.068l-50.005 56.149c-3.174 3.584-8.021 3.413-10.82-0.307l-84.753-111.787c-5.769-7.612-15.053-7.509-20.821 0.068 0 0-21.436 28.228-28.945 36.591-48.060 53.555-102.707 119.33-154.112 112.196-15.77-2.185-28.092-10.445-37.786-21.982-6.554-27.136-9.933-55.228-9.933-83.831 0-57.071 13.585-111.957 38.844-161.314-0.375 0.307-0.956 0.717-1.263 0.99 0.478-0.444 1.058-1.058 2.765-4.335-0.58 1.092-0.956 2.253-1.502 3.345 1.126-0.956 2.253-1.911 3.789-3.004 2.833-2.014 6.042-3.857 3.652-3.277 102.025-24.405 188.894-37.205 295.049-37.205 106.769 0 192.58 12.732 295.902 37.444-0.41-0.341-0.99-0.819-1.365-1.058 0.887 0.614 1.911 1.126 5.803 2.082-1.502-0.375-2.935-0.683-4.437-1.024 0.887 0.649 1.741 1.263 2.799 2.15 1.98 1.673 3.994 3.789 2.662 1.263 26.112 50.005 39.97 105.916 39.97 163.942 0 42.633-7.475 84.105-21.811 122.982v0zM632.234 378.255c-21.845 8.841-21.129 43.998-6.076 65.365 20.582 29.286 39.39 27.682 52.463 24.781 18.125-4.028 20.719-34.884 12.527-55.228-11.401-28.126-37.069-43.759-58.914-34.918v0z"></path>
</svg>
